<svg xmlns="http://www.w3.org/2000/svg" viewBox="0 0 670.9 93.16"><defs><style>.cls-1{fill:#00b6cc;}</style></defs><title>logo_svg</title><g id="レイヤー_2" data-name="レイヤー 2"><g id="レイヤー_1-2" data-name="レイヤー 1"><path class="cls-1" d="M254.45,26.7l-8,64.61H218.13l7-57.66c.79-5.63-5-7.13-6.44-7.13-4.52,0-9.7,1.94-11.15,7.63l-6.92,57.16h-29l7-57.66c.79-5.63-5.48-6.48-7.14-6.48-4.53,0-8.41,1.94-10,7l-6.92,57.16H127.3s8.44-71,9.38-76.19,3.66-11.64,13.44-13.18C162.41,0,162.44,12.12,162.44,12.12,171.26,3.51,179.66.37,189.92.37c8.78,0,15.15,4.14,17.84,12.09C216.64,3.51,225.19.37,236,.37,249,.37,256.82,9.81,254.45,26.7Z"/><polygon class="cls-1" points="119.33 17.06 55.29 17.06 60.46 7.36 124.5 7.36 119.33 17.06"/><polygon class="cls-1" points="111.26 33.88 0 33.88 5.17 24.18 116.44 24.18 111.26 33.88"/><polygon class="cls-1" points="102.2 51.35 58.22 51.35 63.39 41.65 107.38 41.65 102.2 51.35"/><path class="cls-1" d="M308.14.25C282.6.25,259,21,255.39,46.5s14.21,46.25,39.75,46.25S344.3,72,347.89,46.5,333.68.25,308.14.25Zm-10,66.82c-11.42,0-19.38-9.25-17.77-20.67S292.57,25.73,304,25.73,323.36,35,321.76,46.4,309.59,67.07,298.18,67.07Z"/><path class="cls-1" d="M402,.52C363.9,2.36,357.11,0,357.11,0c-2.59,16.82-6.12,34-7.91,46.77-1.6,11.38,1,21.8,6.73,29.86C363,86.66,374.78,93,389,93c25.54,0,49.16-20.7,52.75-46.25S423.88-.54,402,.52ZM392,67.35c-11.41,0-19.37-9.25-17.76-20.67S386.38,26,397.79,26s19.38,9.26,17.77,20.68S403.4,67.35,392,67.35Z"/><path class="cls-1" d="M495.56.66C470,.66,446.4,21.37,442.81,46.91S457,93.16,482.56,93.16s49.16-20.71,52.75-46.25S521.1.66,495.56.66Zm-10,66.83c-11.42,0-19.38-9.26-17.77-20.68S480,26.14,491.41,26.14s19.37,9.25,17.77,20.67S497,67.49,485.6,67.49Z"/><polygon class="cls-1" points="622.97 91.85 590.6 91.85 565.34 49.8 560.01 91.85 533.65 91.85 547.18 0.65 573.54 0.65 566.83 39.75 601.55 0.65 630.73 0.65 591.92 44.66 622.97 91.85"/><polygon class="cls-1" points="657.37 91.85 630.37 91.85 643.9 0.65 670.9 0.65 657.37 91.85"/></g></g></svg>